<?xml version="1.0" standalone="yes"?>
<svg xmlns="http://www.w3.org/2000/svg" width="500" height="500">
<path style="fill:#feffff; stroke:none;" d="M0 0L0 500L500 500L500 0L0 0z"/>
<path style="fill:#09a909; stroke:none;" d="M272 91L273 92L272 91z"/>
<path style="fill:#0770ff; stroke:none;" d="M268 104L284 104C283.273 100.946 283.801 96.0707 281.972 93.5139C274.554 83.1409 268.004 97.9037 268 104z"/>
<path style="fill:#09a909; stroke:none;" d="M279 91L280 92L279 91M249 111C244.656 108.616 236.758 110.101 243.153 115.03C248.679 119.29 266.961 118.734 265.538 108.244C264.858 103.232 259.981 108.146 259 110C257.86 106.145 258.812 100.663 256.142 97.4344C247.905 87.4742 247.849 106.903 249 111z"/>
<path style="fill:#f6964e; stroke:none;" d="M283 100L283 103L284 103L283 100z"/>
<path style="fill:#09a909; stroke:none;" d="M270 104L266.468 121L256.652 136L256 160L296 164C296 154.565 297.72 142.987 294.287 134C292.094 128.26 286.607 124.557 284.075 119C279.869 109.77 283.671 101.5 270 104z"/>
<path style="fill:#f6964e; stroke:none;" d="M278 103L279 104L278 103M269 106L269 109L270 109L269 106z"/>
<path style="fill:#feffff; stroke:none;" d="M249 111L250 112L249 111z"/>
<path style="fill:#09a909; stroke:none;" d="M231 116L231 117L239 117L231 116M221.667 117.333L222.333 117.667L221.667 117.333z"/>
<path style="fill:#0770ff; stroke:none;" d="M193 133C210.642 126.58 224.746 121 244 121C241.757 115.419 235.145 116.976 230 117.001C219.586 117.051 194.989 120.387 193 133z"/>
<path style="fill:#09a909; stroke:none;" d="M216 118L217 119L216 118z"/>
<path style="fill:#f6964e; stroke:none;" d="M245 121L250 126L247 122L266 121C259.997 115.78 251.686 118.508 245 121z"/>
<path style="fill:#09a909; stroke:none;" d="M212 119L213 120L212 119M209 120L210 121L209 120z"/>
<path style="fill:#f14414; stroke:none;" d="M247 122L255 135L256 135L265 121L247 122z"/>
<path style="fill:#f6964e; stroke:none;" d="M296 121L296 122C306.438 121.624 315.289 123.331 321 133C323.115 119.984 304.125 119.492 296 121z"/>
<path style="fill:#09a909; stroke:none;" d="M206 121L207 122L206 121z"/>
<path style="fill:#f14414; stroke:none;" d="M321 138L296 132L297 141L320 149L298 143L297 152L318 160L298 155L298 165L320 172C321.043 158.892 328.924 138.251 317.671 127.519C312.854 122.925 305.57 120.884 299 121.709C296.628 122.007 291.183 123.286 292.346 126.816C293.283 129.661 297.572 130.077 300 130.65C307.149 132.339 314.721 134.101 321 138z"/>
<path style="fill:#09a909; stroke:none;" d="M204 122L205 123L204 122z"/>
<path style="fill:#f6964e; stroke:none;" d="M222 122L223 123L222 122M264 122L263 124L264 122M294 122L295 123L294 122z"/>
<path style="fill:#09a909; stroke:none;" d="M202 123L203 124L202 123z"/>
<path style="fill:#f6964e; stroke:none;" d="M225 123L225 124L230 124L225 123z"/>
<path style="fill:#f14414; stroke:none;" d="M186 153L215 141.873L232.44 137.987L241 123C222.118 123 187.108 128.804 186 153z"/>
<path style="fill:#0770ff; stroke:none;" d="M243 123C233.122 134.619 234.322 147.186 239 161L254 160C254 146.504 256.499 130.973 243 123z"/>
<path style="fill:#09a909; stroke:none;" d="M244 123L245 124L244 123z"/>
<path style="fill:#feffff; stroke:none;" d="M264 123L256 136L257 136L264 123z"/>
<path style="fill:#f6964e; stroke:none;" d="M292 123L293 124L292 123M220.667 124.333L221.333 124.667L220.667 124.333z"/>
<path style="fill:#09a909; stroke:none;" d="M245 124L246 125L245 124z"/>
<path style="fill:#f6964e; stroke:none;" d="M291 124L292 125L291 124M216.667 125.333L217.333 125.667L216.667 125.333M239 125L239 128L240 128L239 125M290 125L292 128L290 125z"/>
<path style="fill:#09a909; stroke:none;" d="M196 126L197 127L196 126z"/>
<path style="fill:#f6964e; stroke:none;" d="M212 126L212 127L215 127L212 126z"/>
<path style="fill:#feffff; stroke:none;" d="M239 126L240 127L239 126z"/>
<path style="fill:#f6964e; stroke:none;" d="M261 126L262 127L261 126M188 143L212 128C203.35 125.449 190.92 135.469 188 143z"/>
<path style="fill:#feffff; stroke:none;" d="M238 127L236 133L237 133L238 127z"/>
<path style="fill:#f6964e; stroke:none;" d="M250 127L251 128L250 127M260 127L261 128L260 127z"/>
<path style="fill:#feffff; stroke:none;" d="M290 127L291 128L290 127z"/>
<path style="fill:#09a909; stroke:none;" d="M249 128L250 129L249 128z"/>
<path style="fill:#f6964e; stroke:none;" d="M251 128L252 129L251 128M292 128L293 129L292 128M236 129L237 130L236 129M293.667 129.333L294.333 129.667L293.667 129.333M298.667 130.333L299.333 130.667L298.667 130.333z"/>
<path style="fill:#09a909; stroke:none;" d="M251 131L252 132L251 131z"/>
<path style="fill:#f6964e; stroke:none;" d="M253 131L254 132L253 131M257 131L258 132L257 131M295 131L295 133L297 131L295 131M302.667 131.333L303.333 131.667L302.667 131.333M192 132L193 133L192 132M235 132L236 133L235 132M299.667 132.333L300.333 132.667L299.667 132.333M306.667 132.333L307.333 132.667L306.667 132.333z"/>
<path style="fill:#09a909; stroke:none;" d="M252 133L253 134L252 133z"/>
<path style="fill:#f6964e; stroke:none;" d="M254.333 133.667L254.667 134.333L254.333 133.667M303.667 133.333L304.333 133.667L303.667 133.333M310 133L311 134L310 133M234 134L235 135L234 134M296 134L296 137L297 137L296 134M307.667 134.333L308.333 134.667L307.667 134.333M313 134L314 135L313 134M322.333 134.667L322.667 135.333L322.333 134.667M255 135L256 136L255 135M310.667 135.333L311.333 135.667L310.667 135.333M316 135L317 136L316 135z"/>
<path style="fill:#09a909; stroke:none;" d="M253 136L254 137L253 136z"/>
<path style="fill:#f6964e; stroke:none;" d="M313.667 136.333L314.333 136.667L313.667 136.333M316 137L316 138L320 137L319 139L320 139L321 137L316 137z"/>
<path style="fill:#feffff; stroke:none;" d="M318.667 137.333L319.333 137.667L318.667 137.333z"/>
<path style="fill:#f6964e; stroke:none;" d="M233 138L234 139L233 138M323 138L323 153L324 153L323 138M227 139L227 140L233 140L227 139M220 140L220 141L223 141L220 140M216 141L217 142L216 141z"/>
<path style="fill:#09a909; stroke:none;" d="M185 155L192 172L237 161L232.262 142.028L220 142.134L185 155z"/>
<path style="fill:#f6964e; stroke:none;" d="M298.667 141.333L299.333 141.667L298.667 141.333M212 142L213 143L212 142M302.667 142.333L303.333 142.667L302.667 142.333M208.667 143.333L209.333 143.667L208.667 143.333M297 143L297 148L298 148L297 143M299.667 143.333L300.333 143.667L299.667 143.333M306 143L307 144L306 143M187 144L188 145L187 144M205 144L206 145L205 144z"/>
<path style="fill:#feffff; stroke:none;" d="M187 153L187 154L210 145C203.331 142.687 192.683 149.683 187 153z"/>
<path style="fill:#f6964e; stroke:none;" d="M303.667 144.333L304.333 144.667L303.667 144.333M309.667 144.333L310.333 144.667L309.667 144.333M202.667 145.333L203.333 145.667L202.667 145.333M307 145L308 146L307 145M310 146L310 147L314 146L310 146M186.333 146.667L186.667 147.333L186.333 146.667M200 146L201 147L200 146z"/>
<path style="fill:#feffff; stroke:none;" d="M312 146L312 147L319 149L319 148L312 146z"/>
<path style="fill:#f6964e; stroke:none;" d="M315 146L316 147L315 146M313 147L314 148L313 147M318 147L319 148L318 147M195 148L196 149L195 148M316 148L317 149L316 148M319 148L320 149L319 148M193 149L194 150L193 149M254 149L254 156L255 156L254 149M318 149L319 150L318 149M185 150L187 154L185 150M191 150L192 151L191 150M297 150L298 151L297 150M189 151L190 152L189 151M297 152L298 153L297 152M300.667 153.333L301.333 153.667L300.667 153.333M297 154L297 165L298 165L299 154L297 154M304.667 154.333L305.333 154.667L304.667 154.333M237 155L238 156L237 155M302 155L303 156L302 155M308 155L309 156L308 155M306 156L307 157L306 156M311 156L312 157L311 156M322 156L322 160L323 160L322 156M254.333 157.667L254.667 158.333L254.333 157.667M309 157L310 158L309 157M314 157L315 158L314 157M312 158L313 159L312 158M315 160L318 159L315 160z"/>
<path style="fill:#feffff; stroke:none;" d="M316.667 159.333L317.333 159.667L316.667 159.333z"/>
<path style="fill:#f6964e; stroke:none;" d="M240 160L241 161L240 160M271 160L272 161L271 160M230 161L231 162L230 161z"/>
<path style="fill:#09a909; stroke:none;" d="M253 161L253 162L258 162L253 161z"/>
<path style="fill:#f6964e; stroke:none;" d="M280 161L281 162L280 161z"/>
<path style="fill:#09a909; stroke:none;" d="M237.667 162.333L238.333 162.667L237.667 162.333z"/>
<path style="fill:#0770ff; stroke:none;" d="M186 178C188.834 184.07 192.333 189.733 194.796 196C197.928 203.973 197.884 213.364 201.279 221C207.598 235.216 227.537 247.726 243 242.035C248.728 239.927 253.208 235.611 258 232L258 231C246.26 230.066 233.192 226.554 224 219L239 221L239 220L219 208L220 207L240 213L240 212C233.023 207.383 224.121 203.597 220 196C228.517 194.845 235.698 202.547 243 206C239.127 200.502 231.737 196.247 232 189L253 203L252 192C261.541 197.187 263.279 209.407 275 212.482C292.548 217.086 310.342 207.47 317.312 192C318.909 188.454 324.704 181.238 322.264 177.379C316.921 168.926 297.932 166.526 289 164.803C255.404 158.323 216.022 160.477 186 178z"/>
<path style="fill:#09a909; stroke:none;" d="M272.667 162.333L273.333 162.667L272.667 162.333z"/>
<path style="fill:#f6964e; stroke:none;" d="M321 162L321 165L322 165L321 162z"/>
<path style="fill:#09a909; stroke:none;" d="M229.667 163.333L230.333 163.667L229.667 163.333M281 163L282 164L281 163M223 164L224 165L223 164M287 164L288 165L287 164M218 165L219 166L218 165M292 165L293 166L292 165z"/>
<path style="fill:#f6964e; stroke:none;" d="M300 165L301 166L300 165M207 166L208 167L207 166z"/>
<path style="fill:#09a909; stroke:none;" d="M214 166L215 167L214 166M297 166L298 167L297 166z"/>
<path style="fill:#f6964e; stroke:none;" d="M303.667 166.333L304.333 166.667L303.667 166.333z"/>
<path style="fill:#09a909; stroke:none;" d="M210 167L211 168L210 167z"/>
<path style="fill:#f6964e; stroke:none;" d="M306.667 167.333L307.333 167.667L306.667 167.333M320 167L320 170L321 170L320 167M201 168L202 169L201 168z"/>
<path style="fill:#09a909; stroke:none;" d="M206 168L207 169L206 168M304 168L305 169L304 168z"/>
<path style="fill:#f6964e; stroke:none;" d="M309 168L310 169L309 168z"/>
<path style="fill:#09a909; stroke:none;" d="M203 169L204 170L203 169M307 169L308 170L307 169z"/>
<path style="fill:#f6964e; stroke:none;" d="M312 169L313 170L312 169M314 170L315 171L314 170M191 171L192 172L191 171z"/>
<path style="fill:#09a909; stroke:none;" d="M198 171L199 172L198 171M312 171L313 172L312 171z"/>
<path style="fill:#f6964e; stroke:none;" d="M317 171L318 172L317 171z"/>
<path style="fill:#09a909; stroke:none;" d="M196 172L197 173L196 172z"/>
<path style="fill:#f6964e; stroke:none;" d="M319 172L320 173L319 172z"/>
<path style="fill:#09a909; stroke:none;" d="M194 173L195 174L194 173M192 174L193 175L192 174M318 174L319 175L318 174M190 175L191 176L190 175M320 175L321 176L320 175z"/>
<path style="fill:#f6964e; stroke:none;" d="M322 181L323 182L322 181M235 190L236 191L235 190M253 192L254 193L253 192M232 194L233 195L232 194M224 195L225 196L224 195M195 197L196 198L195 197M221 199L222 200L221 199M222 200L223 201L222 200M235 201L236 202L235 201M312 202L313 203L312 202M238 203L239 204L238 203z"/>
<path style="fill:#0770ff; stroke:none;" d="M253 203L254 204L253 203z"/>
<path style="fill:#f6964e; stroke:none;" d="M242 204L243 205L242 204M309 204L310 205L309 204M241 205L242 206L241 205M243.333 205.667L243.667 206.333L243.333 205.667M198 207L199 208L198 207M220.667 207.333L221.333 207.667L220.667 207.333M232 207L233 208L232 207M229 209L230 210L229 209M268 209L269 210L268 209M297 210L298 211L297 210M237 212L238 213L237 212M291 212L292 213L291 212M279.667 213.333L280.333 213.667L279.667 213.333M284.667 213.333L285.333 213.667L284.667 213.333M231 216L232 217L231 216M227 218L228 219L227 218M200 219L201 220L200 219M232 219L233 220L232 219M236 220L237 221L236 220M203 224L204 225L203 224M234 225L235 226L234 225M309 225L310 226L309 225M306 226L307 227L306 226z"/>
<path style="fill:#f14414; stroke:none;" d="M262 232L257 242C261.945 240.65 274.706 233.466 279.534 236.327C284.822 239.462 267.935 246.249 266 247L266 248L291 245C285.429 252.379 275.415 252.822 267 255L267 256L288 257L288 259L265 262L265 263L279 265L279 268C258.313 270.615 237.895 267.889 219 258.742C210.937 254.838 204.067 248.59 196 245L186 274L324 274L310 226L262 232z"/>
<path style="fill:#f6964e; stroke:none;" d="M240 227L241 228L240 227M303.667 227.333L304.333 227.667L303.667 227.333M300 228L301 229L300 228M310 228L310 231L311 231L310 228M296.667 229.333L297.333 229.667L296.667 229.333M291.667 230.333L292.333 230.667L291.667 230.333M283 231L283 232L287 232L283 231M272 232L273 233L272 232M262.333 233.667L262.667 234.333L262.333 233.667M311.333 234.667L311.667 235.333L311.333 234.667M278 235L278 236L281 236L278 235M261 236L262 237L261 236M274 236L275 237L274 236M260 237L261 238L260 237M270.667 237.333L271.333 237.667L270.667 237.333M267 238L268 239L267 238M281 238L282 239L281 238M312.333 238.667L312.667 239.333L312.333 238.667M264 239L265 240L264 239M261.667 240.333L262.333 240.667L261.667 240.333M279 240L280 241L279 240M224 241L225 242L224 241M244 241L245 242L244 241M259 241L260 242L259 241M278 241L279 242L278 241M256 242L257 243L256 242M276 242L277 243L276 242M313.333 242.667L313.667 243.333L313.333 242.667M232 243L233 244L232 243M236.667 243.333L237.333 243.667L236.667 243.333M274 243L275 244L274 243M196 244L197 245L196 244M272 244L273 245L272 244M281 244L281 245L284 245L281 244M288.667 244.333L289.333 244.667L288.667 244.333M269 245L270 246L269 245M276.667 245.333L277.333 245.667L276.667 245.333M290.333 245.667L290.667 246.333L290.333 245.667M314.333 245.667L314.667 246.333L314.333 245.667M195.333 246.667L195.667 247.333L195.333 246.667M267 246L268 247L267 246M272.667 246.333L273.333 246.667L272.667 246.333M200 247L201 248L200 247M265.333 247.667L265.667 248.333L265.333 247.667M268.667 247.333L269.333 247.667L268.667 247.333M201 248L202 249L201 248M315.333 248.667L315.667 249.333L315.333 248.667M194.333 249.667L194.667 250.333L194.333 249.667M287 249L288 250L287 249M204 250L205 251L204 250M284 250L285 251L284 250M280.667 251.333L281.333 251.667L280.667 251.333M316.333 251.667L316.667 252.333L316.333 251.667M193.333 252.667L193.667 253.333L193.333 252.667M207 252L208 253L207 252M276.667 252.333L277.333 252.667L276.667 252.333M209 253L210 254L209 253M271 253L271 254L274 254L271 253M210 254L211 255L210 254M267.667 254.333L268.333 254.667L267.667 254.333M317.333 254.667L317.667 255.333L317.333 254.667M192.333 255.667L192.667 256.333L192.333 255.667M212 255L213 256L212 255M266 255L267 256L266 255M273 255L273 256L279 256L273 255M214 256L215 257L214 256M285.667 256.333L286.333 256.667L285.667 256.333M216 257L217 258L216 257M287 257L288 258L287 257M318.333 257.667L318.667 258.333L318.333 257.667M191.333 258.667L191.667 259.333L191.333 258.667M218 258L219 259L218 258M220 259L221 260L220 259M222 260L223 261L222 260M283.667 260.333L284.333 260.667L283.667 260.333M319 260L320 261L319 260M190 261L191 262L190 261M225 261L226 262L225 261M273 261L273 262L279 262L273 261M227 262L228 263L227 262M320.333 262.667L320.667 263.333L320.333 262.667M189.333 263.667L189.667 264.333L189.333 263.667M230 263L231 264L230 263M265.667 263.333L266.333 263.667L265.667 263.333M233.667 264.333L234.333 264.667L233.667 264.333M273 264L273 265L276 265L273 264M237 265L238 266L237 265M278 265L279 266L278 265M321 265L322 266L321 265M188 266L189 267L188 266M240.667 266.333L241.333 266.667L240.667 266.333M245 267L245 268L248 268L245 267M278 267L279 268L278 267M322.333 267.667L322.667 268.333L322.333 267.667M187.333 268.667L187.667 269.333L187.333 268.667M251 268L251 269L255 269L251 268M273 268L273 269L276 269L273 268M323 270L324 271L323 270M186 271L187 272L186 271M324 272C316.593 277.612 297.192 274 288 274L221 274C209.412 274 196.307 275.692 185 273C188.526 277.83 206.113 275 212 275L294 275L318 275C320.55 274.994 325.354 275.593 324 272z"/>
<path style="fill:#09a909; stroke:none;" d="M147 306L127 306L127 315L137 315C134.774 329.078 115.329 317.94 119.894 306.004C125.272 291.944 141.09 307.88 145 294C125.99 282.713 97.8862 296.898 110 320.999C115.537 332.016 137.231 337.018 145.397 325.812C148.829 321.101 147 311.573 147 306M211 289.468C195.402 292.409 187.684 312.37 198.532 324.815C204.413 331.561 214.74 332.352 223 330.685C237.717 327.715 243.075 308.596 234.362 297.043C229.171 290.161 219.15 287.931 211 289.468M275 318C270.891 319.47 266.544 322.515 262.001 321.307C253.707 319.102 251.508 308.277 257.394 302.394C264.899 294.893 272.801 305.093 280 295C272.216 289.872 264.049 287.266 255 290.931C241.953 296.214 237.725 314.382 247.214 324.956C255.387 334.064 286.225 334.791 275 318M165 317C176.376 320.339 176.085 334.409 191 330L181 316C189.885 311.28 191.99 298.909 182.956 292.728C178.097 289.403 171.581 290 166 290C162.849 290 156.261 288.784 154.028 291.603C150.763 295.725 153 307.912 153 313C153 316.937 151.171 327.254 154.603 329.972C164.408 337.737 165 322.157 165 317M285 290L285 318C285 321.121 283.954 326.779 286.028 329.397C288.261 332.216 294.849 331 298 331C308.522 331 317.99 334 318 321C310.972 321 297.449 324.085 296 315C300.934 315 309.202 316.601 313.682 314.397C316.428 313.045 316.77 307.908 314.397 306.028C310.693 303.093 300.556 305 296 305L296 300L317 300L317 290L285 290M324 290L324 331L335 331L335.001 325.975C335.114 309.96 344.041 327.097 349.174 329.972C352.466 331.817 357.358 331 361 331L351 316C360.48 311.037 362.389 297.483 351.96 292C344.209 287.925 332.509 290 324 290M362 290L376.157 314L378.028 329.397L386.682 330.397L389.51 315L405 290C393.347 290 389.126 292.033 384 303L382 303C378.39 291.671 372.886 290 362 290z"/>
<path style="fill:#f6964e; stroke:none;" d="M377 294L378 295L377 294z"/>
<path style="fill:#feffff; stroke:none;" d="M165 299L165 309C179.902 308.998 179.702 299.002 165 299M212.005 299.742C198.91 304.81 206.518 326.048 219.995 320.848C233.182 315.76 225.501 294.52 212.005 299.742M335 309C337.313 309 339.692 309.147 341.997 308.941C356.835 307.616 338.504 291.495 335.318 302.147C334.687 304.256 335.002 306.825 335 309z"/>
<path style="fill:#f6964e; stroke:none;" d="M234 323L235 324L234 323M126 331L127 332L126 331z"/>
<path style="fill:#0770ff; stroke:none;" d="M191 368C186.356 368.849 183.496 368.246 179 367.148C175.348 366.256 169.686 369.411 173.377 373.362C176.694 376.913 182.515 377.172 187 376.96C198.847 376.398 206.931 361.459 192.999 356.264C189.121 354.818 184.924 354.433 181 353L181 351L193 352L194 352L198 345C189.736 340.668 164.94 341.451 173.179 356.956C177.173 364.472 187.243 360.551 191 368z"/>
<path style="fill:#f6964e; stroke:none;" d="M203 342L202 350L203 350L203 342M230 342L231 343L230 342z"/>
<path style="fill:#0770ff; stroke:none;" d="M246 342.638C222.949 349.303 236.128 382.822 259 376.211C282.363 369.458 269.097 335.96 246 342.638z"/>
<path style="fill:#f6964e; stroke:none;" d="M277 342L278 343L277 342z"/>
<path style="fill:#0770ff; stroke:none;" d="M203 343L203 350L212 350L212 376L222 376L222 350L232 350L232 343L203 343M276 343L276 376L286 376L286 365C295.014 369.395 295.654 375.999 307 376L299 364C306.678 359.895 308.699 349.096 299.957 344.457C293.559 341.062 283.059 343 276 343z"/>
<path style="fill:#f6964e; stroke:none;" d="M298 343L299 344L298 343z"/>
<path style="fill:#0770ff; stroke:none;" d="M312 343L312 376L339 376L339 368L321 368L321 363L337 363L337 355L321 355L322 350L337 351L338 343L312 343z"/>
<path style="fill:#f6964e; stroke:none;" d="M300 344L301 345L300 344M172 348L173 349L172 348M185.667 349.333L186.333 349.667L185.667 349.333z"/>
<path style="fill:#feffff; stroke:none;" d="M249.044 350.743C238.606 354.936 244.895 372.351 255.981 368.103C267.084 363.849 260.211 346.257 249.044 350.743M286 350L286 358C297.752 357.991 297.73 350.034 286 350z"/>
<path style="fill:#f6964e; stroke:none;" d="M324 350L325 351L324 350M327 350L327 351L336 351L327 350M337 350L338 351L337 350M234 354L235 355L234 354M243 358L244 359L243 358M200 364L201 365L200 364M255 368L256 369L255 368M296 375L297 376L296 375z"/>
</svg>
